<svg xmlns="http://www.w3.org/2000/svg" xmlns:xlink="http://www.w3.org/1999/xlink" width="1920" zoomAndPan="magnify" viewBox="0 0 1440 809.999993" height="1080" preserveAspectRatio="xMidYMid meet" version="1.2"><defs><clipPath id="f4e9b69a05"><path d="M 353.566406 47 L 1130.566406 47 L 1130.566406 810 L 353.566406 810 Z M 353.566406 47 "/></clipPath></defs><g id="2596b13796"><g clip-rule="nonzero" clip-path="url(#f4e9b69a05)"><path style=" stroke:none;fill-rule:evenodd;fill:#242424;fill-opacity:1;" d="M 498.796875 53.261719 C 489.851562 58.472656 488.945312 71.296875 488.945312 192.667969 C 488.945312 289.128906 490.824219 328.214844 495.699219 333.089844 C 500.074219 337.464844 522.75 339.84375 560.023438 339.84375 C 635.878906 339.84375 635.277344 340.484375 635.277344 260.171875 L 635.277344 198.191406 L 729.546875 200.125 C 813.132812 201.835938 826.367188 203.429688 846.332031 214.171875 C 895.925781 240.875 924.269531 285.566406 924.242188 337.03125 C 924.214844 391.992188 893.214844 438.238281 839.359375 463.65625 C 817.328125 474.058594 803.816406 474.917969 663.109375 474.917969 C 568.824219 474.917969 506.566406 477.140625 499.832031 480.742188 C 489.535156 486.253906 488.945312 493.847656 488.945312 620.320312 C 488.945312 716.847656 490.824219 755.953125 495.699219 760.828125 C 500.074219 765.199219 522.75 767.582031 560.023438 767.582031 C 635.824219 767.582031 635.277344 768.15625 635.277344 688.386719 L 635.277344 626.878906 L 722.238281 626.878906 C 823.46875 626.878906 853.683594 621.726562 910.429688 594.792969 C 1028.300781 538.835938 1094.988281 404.207031 1067.9375 276.804688 C 1052.105469 202.242188 991.285156 121.195312 924.03125 85.046875 C 864.238281 52.910156 823.730469 47.164062 658.296875 47.351562 C 567.160156 47.457031 504.792969 49.765625 498.796875 53.261719 M 758.773438 296.226562 C 731.320312 325.160156 731.769531 358.195312 759.941406 381.902344 C 783.378906 401.625 809.882812 400.875 833.449219 379.816406 C 848.554688 366.316406 851.707031 359.429688 851.707031 339.84375 C 851.707031 320.257812 848.554688 313.367188 833.449219 299.871094 C 809.972656 278.898438 776.757812 277.269531 758.773438 296.226562 M 1261.230469 872.03125 C 1237.292969 888.796875 1251.191406 930.796875 1280.675781 930.796875 C 1295.855469 930.796875 1310.652344 913.558594 1310.652344 895.867188 C 1310.652344 871.402344 1281.917969 857.546875 1261.230469 872.03125 M 850.84375 874.453125 C 835.433594 880.816406 821.003906 907.878906 821.003906 930.40625 C 821.003906 944.003906 818.089844 948.199219 806.636719 951.074219 C 794.078125 954.226562 792.480469 957.253906 793.972656 975.101562 C 795.328125 991.355469 798.261719 995.886719 808.339844 997.320312 C 820.75 999.082031 821.003906 1000.625 821.003906 1074.105469 C 821.003906 1153.042969 822.011719 1156.074219 848.199219 1155.835938 C 871.496094 1155.621094 873.449219 1148.835938 872.1875 1072.398438 L 870.976562 999.054688 L 892.417969 997.285156 C 912.769531 995.609375 913.957031 994.4375 915.613281 974.414062 C 917.4375 952.417969 913.222656 949.695312 881.507812 952.351562 C 874.667969 952.925781 871.65625 949.105469 871.65625 939.863281 C 871.65625 922.472656 884.929688 911.90625 902.542969 915.273438 C 920.097656 918.632812 929.304688 908.152344 926.9375 887.515625 C 925.214844 872.488281 923.589844 871.644531 894.171875 870.523438 C 877.144531 869.878906 857.648438 871.644531 850.84375 874.453125 M 1163.621094 875.601562 C 1161.546875 897.527344 1165.230469 1147.21875 1167.695312 1151.199219 C 1171.394531 1157.1875 1198.617188 1157.199219 1208.039062 1151.214844 C 1213.554688 1147.714844 1214.832031 1115.4375 1213.667969 1009.195312 L 1212.160156 871.699219 L 1188.238281 869.972656 C 1171.664062 868.769531 1164.105469 870.496094 1163.621094 875.601562 M 407.339844 950.503906 C 322.859375 980.375 314.6875 1105.261719 394.675781 1143.984375 C 484.960938 1187.691406 580.105469 1101.761719 542.113281 1010.816406 C 529.191406 979.875 506.96875 959.707031 475.488281 950.359375 C 441.664062 940.320312 436.121094 940.328125 407.339844 950.503906 M 639.125 950.207031 C 577.511719 972.179688 551.914062 1045.671875 585.089844 1105.339844 C 617.324219 1163.304688 709.882812 1173.464844 754.660156 1123.953125 C 806.1875 1066.972656 777.847656 968.425781 704.046875 947.929688 C 677.050781 940.429688 665.386719 940.84375 639.125 950.207031 M 993.433594 950.296875 C 933.703125 971.589844 906.085938 1038.433594 932.898438 1096.824219 C 945.195312 1123.605469 957.746094 1135.601562 985.648438 1147.265625 C 1032.109375 1166.675781 1090.523438 1151.125 1116.046875 1112.554688 C 1155.96875 1052.238281 1130.753906 974.398438 1063.632812 950.714844 C 1033.972656 940.25 1021.820312 940.179688 993.433594 950.296875 M 1426.027344 944.640625 C 1422.933594 945.773438 1413.484375 948.21875 1405.023438 950.082031 C 1384.394531 954.632812 1350.15625 985.445312 1340.765625 1007.914062 C 1330.21875 1033.160156 1331.285156 1076.214844 1343.023438 1099.238281 C 1373.0625 1158.148438 1456.429688 1175.140625 1505.226562 1132.292969 C 1532.820312 1108.066406 1541.402344 1088.640625 1541.402344 1050.394531 C 1541.402344 1010.894531 1522.996094 977.707031 1491.234375 959.933594 C 1471.234375 948.738281 1436.863281 940.679688 1426.027344 944.640625 M -10.832031 954.433594 C -17.96875 961.570312 -20.996094 1202.398438 -14.167969 1220.183594 C -10.082031 1230.835938 21.949219 1232.328125 31.941406 1222.332031 C 35.859375 1218.414062 38.695312 1199.644531 38.695312 1177.640625 L 38.695312 1139.707031 L 54.175781 1147.777344 C 93.988281 1168.550781 152.445312 1149.773438 176.667969 1108.441406 C 190.085938 1085.546875 191.644531 1077.851562 189.734375 1043.988281 C 187.949219 1012.320312 184.722656 1001.8125 171.480469 984.453125 C 162.640625 972.855469 146.953125 959.84375 136.625 955.527344 C 113.726562 945.957031 72.5 945.34375 52.878906 954.28125 C 41.796875 959.332031 36.839844 959.332031 31.789062 954.28125 C 23.214844 945.703125 -2.191406 945.792969 -10.832031 954.433594 M 225.832031 951.1875 C 220.589844 953.464844 218.796875 979.214844 218.796875 1052.160156 L 218.796875 1150.078125 L 233.28125 1153.714844 C 241.246094 1155.710938 253.910156 1154.546875 261.421875 1151.125 C 274.65625 1145.097656 275.078125 1143.027344 275.078125 1083.746094 C 275.078125 1016.089844 279.980469 1005.296875 312.421875 1001.5 C 319.316406 1000.710938 326.203125 999.867188 333.085938 998.972656 C 335.589844 998.621094 336.855469 987.566406 335.902344 974.414062 L 334.171875 950.492188 L 308.847656 951.738281 C 294.917969 952.417969 279.722656 953.15625 275.078125 953.375 C 270.433594 953.59375 259.039062 952.496094 249.75 950.949219 C 240.464844 949.394531 229.703125 949.503906 225.832031 951.1875 M 1261.40625 951.277344 C 1256.160156 953.488281 1254.371094 979.113281 1254.371094 1051.890625 C 1254.371094 1143.144531 1255.074219 1149.757812 1265.148438 1152.953125 C 1271.074219 1154.835938 1282.527344 1154.714844 1290.605469 1152.691406 L 1305.277344 1149.007812 L 1303.746094 1049.75 L 1302.207031 950.492188 L 1285.324219 949.402344 C 1276.039062 948.800781 1265.277344 949.644531 1261.40625 951.277344 M 427.035156 996.46875 C 391.214844 1010.449219 380.351562 1061.542969 407.066406 1090.375 C 434.71875 1120.203125 487.484375 1104.535156 497.800781 1063.433594 C 501.953125 1046.871094 492.714844 1020.378906 478.214844 1007.25 C 467.238281 997.320312 439.71875 991.523438 427.035156 996.46875 M 654.171875 998.074219 C 625.128906 1010.304688 613.351562 1062.703125 633.925781 1088.113281 C 645.734375 1102.695312 684.375 1109.511719 701.941406 1100.105469 C 719.828125 1090.53125 732.566406 1062.132812 728.550781 1040.757812 C 722.355469 1007.710938 683.808594 985.589844 654.171875 998.074219 M 1012.359375 996.679688 C 981.011719 1008.136719 965.75 1046.84375 980.96875 1076.277344 C 991.839844 1097.308594 1005.421875 1105.265625 1030.4375 1105.265625 C 1054.761719 1105.265625 1071.902344 1092.953125 1079.398438 1070.074219 C 1087.863281 1044.246094 1079.820312 1020.40625 1057.570312 1005.367188 C 1038.949219 992.785156 1028.511719 990.773438 1012.359375 996.679688 M 1419.769531 998.21875 C 1413.234375 1000.859375 1402.46875 1009.910156 1395.847656 1018.324219 C 1367.648438 1054.175781 1393.097656 1105.265625 1439.164062 1105.265625 C 1497.183594 1105.265625 1510.804688 1017.9375 1455.773438 998.753906 C 1435.847656 991.808594 1435.644531 991.804688 1419.769531 998.21875 M 62.496094 1002.097656 C 51.601562 1006.484375 38.695312 1035.046875 38.695312 1054.765625 C 38.695312 1066.714844 43.980469 1077.648438 55.148438 1088.816406 C 76.125 1109.785156 99.234375 1110.433594 122.683594 1090.695312 C 137.25 1078.4375 140.003906 1072.140625 140.003906 1051.046875 C 140.003906 1017.648438 121.710938 998.136719 91.011719 998.777344 C 79.265625 999.019531 66.433594 1000.515625 62.496094 1002.097656 "/></g></g></svg>